<?xml version="1.0" encoding="utf-8"?>
<!-- Generator: Adobe Illustrator 24.3.0, SVG Export Plug-In . SVG Version: 6.00 Build 0)  -->
<svg version="1.1" id="Vrstva_1" xmlns="http://www.w3.org/2000/svg" xmlns:xlink="http://www.w3.org/1999/xlink" x="0px" y="0px"
	 viewBox="0 0 178.8 88" style="enable-background:new 0 0 178.8 88;" xml:space="preserve">
<style type="text/css">
	.st0{fill:#FFFFFF;}
</style>
<g>
	<path class="st0" d="M38.9,66L23.5,38.2c3.9-1.5,7-3.8,9.2-6.8c2.2-3,3.3-6.6,3.3-10.7c0-6.4-2-11.3-6-14.7c-4-3.4-9.6-5-17-5H0
		v7.1h15.8c2,0,5.5,1.1,7.9,3.3c2.4,2.2,3.6,5.3,3.6,9.3c0,3.7-1.3,6.7-3.8,8.9c-2.5,2.2-5.9,3.3-10.2,3.3"/>
	<g>
		<path class="st0" d="M67,66l-5.4-7.8h-0.3h-5.6V66h-6.5V38h12.1c2.5,0,4.6,0.4,6.5,1.2c1.8,0.8,3.2,2,4.2,3.5
			c1,1.5,1.5,3.3,1.5,5.4s-0.5,3.9-1.5,5.4c-1,1.5-2.4,2.7-4.3,3.5l6.3,9H67z M65.4,44.5c-1-0.8-2.5-1.3-4.4-1.3h-5.3V53h5.3
			c1.9,0,3.4-0.4,4.4-1.3c1-0.9,1.5-2.1,1.5-3.6C66.9,46.5,66.4,45.3,65.4,44.5z"/>
		<path class="st0" d="M107.2,61.6V66h-21V38h20.4v4.4H91.4v7.3h13.5v4.3H91.4v7.7H107.2z"/>
		<path class="st0" d="M129.6,52.2l-6.3,6.4V66h-2V38h2v18l17.5-18h2.5L131,50.7L144.2,66h-2.5L129.6,52.2z"/>
		<path class="st0" d="M174.1,57.5H157L153,66h-0.9l13-28h0.8l13,28H178L174.1,57.5z M173.7,56.8L165.5,39l-8.2,17.7H173.7z"/>
	</g>
	<g>
		<path class="st0" d="M58.3,81.8h0.8V86c-0.5,0.5-1.1,0.8-1.8,1.1c-0.7,0.2-1.4,0.4-2.2,0.4c-1.1,0-2.1-0.2-3-0.7s-1.6-1.2-2.1-2
			c-0.5-0.9-0.8-1.8-0.8-2.9c0-1.1,0.3-2,0.8-2.9c0.5-0.9,1.2-1.5,2.1-2s1.9-0.7,3-0.7c0.8,0,1.6,0.1,2.3,0.4
			c0.7,0.3,1.3,0.6,1.8,1.1l-0.5,0.5c-0.5-0.5-1-0.8-1.6-1s-1.2-0.3-1.9-0.3c-1,0-1.8,0.2-2.6,0.6c-0.8,0.4-1.4,1-1.8,1.8
			C50.2,80,50,80.9,50,81.8c0,0.9,0.2,1.8,0.7,2.5c0.4,0.8,1,1.3,1.8,1.8c0.8,0.4,1.6,0.6,2.6,0.6c1.3,0,2.3-0.3,3.2-1V81.8z"/>
		<path class="st0" d="M87.9,87.4l-2.7-3.7c-0.4,0.1-0.8,0.1-1.1,0.1H81v3.7h-0.8V76.2h4c1.4,0,2.5,0.3,3.3,1
			c0.8,0.7,1.2,1.6,1.2,2.8c0,0.9-0.2,1.6-0.7,2.2c-0.5,0.6-1.1,1-1.9,1.3l2.8,3.9H87.9z M84.2,83c1.2,0,2.1-0.3,2.7-0.8
			c0.6-0.5,0.9-1.3,0.9-2.2s-0.3-1.7-0.9-2.2c-0.6-0.5-1.5-0.8-2.7-0.8H81V83H84.2z"/>
		<path class="st0" d="M111,86.7c-0.9-0.5-1.6-1.2-2.1-2c-0.5-0.9-0.8-1.8-0.8-2.9c0-1.1,0.3-2,0.8-2.9c0.5-0.9,1.2-1.5,2.1-2
			c0.9-0.5,1.9-0.7,3-0.7s2.1,0.2,3,0.7c0.9,0.5,1.6,1.2,2.1,2c0.5,0.9,0.8,1.8,0.8,2.9c0,1.1-0.3,2-0.8,2.9c-0.5,0.9-1.2,1.5-2.1,2
			c-0.9,0.5-1.9,0.7-3,0.7S111.9,87.2,111,86.7z M116.5,86.1c0.8-0.4,1.4-1,1.8-1.8c0.4-0.8,0.7-1.6,0.7-2.5c0-0.9-0.2-1.8-0.7-2.5
			c-0.4-0.8-1-1.3-1.8-1.8c-0.8-0.4-1.6-0.6-2.5-0.6c-0.9,0-1.8,0.2-2.6,0.6c-0.8,0.4-1.4,1-1.8,1.8c-0.4,0.8-0.7,1.6-0.7,2.5
			c0,0.9,0.2,1.8,0.7,2.5c0.4,0.8,1,1.3,1.8,1.8c0.8,0.4,1.6,0.6,2.6,0.6C114.9,86.7,115.7,86.5,116.5,86.1z"/>
		<path class="st0" d="M141.2,86.2c-0.8-0.8-1.2-2-1.2-3.6v-6.4h0.8v6.4c0,1.4,0.3,2.4,0.9,3.1c0.6,0.7,1.5,1,2.7,1
			c1.2,0,2.1-0.3,2.7-1s0.9-1.7,0.9-3.1v-6.4h0.8v6.4c0,1.6-0.4,2.8-1.2,3.6c-0.8,0.8-1.9,1.2-3.3,1.2S142,87.1,141.2,86.2z"/>
		<path class="st0" d="M177.7,77.2c0.8,0.7,1.2,1.6,1.2,2.8c0,1.2-0.4,2.1-1.2,2.8c-0.8,0.7-1.9,1-3.3,1h-3.2v3.7h-0.8V76.2h4
			C175.8,76.2,176.9,76.5,177.7,77.2z M177.1,82.2c0.6-0.5,0.9-1.3,0.9-2.2s-0.3-1.7-0.9-2.2c-0.6-0.5-1.5-0.8-2.7-0.8h-3.2V83h3.2
			C175.5,83,176.5,82.7,177.1,82.2z"/>
	</g>
</g>
</svg>
