<svg xmlns="http://www.w3.org/2000/svg" id="customer-support" viewBox="0 0 47.998 48"><path id="Path_2" data-name="Path 2" d="M.416,4.472l3.2,5.6a.8.8,0,0,0,.5.379l2.984.746L17.334,21.43,18.465,20.3,8.07,9.9A.8.8,0,0,0,7.7,9.694L4.831,8.974,2.108,4.206,4.443,1.871,9.213,4.6l.72,2.867a.8.8,0,0,0,.21.372l10.4,10.4L21.669,17.1,11.434,6.865l-.746-2.983a.8.8,0,0,0-.379-.5l-5.6-3.2a.8.8,0,0,0-.96.129l-3.2,3.2a.8.8,0,0,0-.137.961Zm0,0" transform="translate(-0.311 -0.073)" fill="currentColor"></path><path id="Path_3" data-name="Path 3" d="M192.7,174.85l-17.592,17.592-1.131-1.131,17.592-17.592Zm0,0" transform="translate(-159.353 -159.09)" fill="currentColor"></path><path id="Path_4" data-name="Path 4" d="M56.435,399.223a.8.8,0,0,0-.686-.388h-4.8a.8.8,0,0,0-.685.388l-2.4,4a.8.8,0,0,0,0,.824l2.4,4a.8.8,0,0,0,.685.388h4.8a.8.8,0,0,0,.686-.388l2.4-4a.8.8,0,0,0,0-.824ZM55.3,406.832H51.4l-1.919-3.2,1.919-3.2H55.3l1.919,3.2Zm0,0" transform="translate(-43.755 -365.249)" fill="currentColor"></path><path id="Path_5" data-name="Path 5" d="M38.656,19.193a9.562,9.562,0,0,0,9.3-11.915.8.8,0,0,0-1.341-.373L41.639,11.88,37.69,10.564,36.372,6.615,41.35,1.637A.8.8,0,0,0,40.975.295,9.566,9.566,0,0,0,29.061,9.6a9.386,9.386,0,0,0,.194,1.874L11.743,28.983a9.434,9.434,0,0,0-1.873-.194,9.6,9.6,0,1,0,9.6,9.6,9.41,9.41,0,0,0-.194-1.874l4.192-4.192L25.3,34.151a.8.8,0,0,0,1.131,0l.4-.4a.9.9,0,0,1,1.27,1.267l0,0-.4.4a.8.8,0,0,0,0,1.131l9.539,9.539A6.454,6.454,0,1,0,46.4,37l-.041-.041-9.539-9.539a.8.8,0,0,0-1.131,0l-.4.4a.9.9,0,0,1-1.27-1.266l0,0,.4-.4a.8.8,0,0,0,0-1.131L32.59,23.191,36.783,19a9.409,9.409,0,0,0,1.873.194ZM41.8,46.38a4.859,4.859,0,0,1-1.7-.31l6.245-6.245A4.849,4.849,0,0,1,41.8,46.38ZM32.739,25.6a2.5,2.5,0,0,0,3.518,3.513l8.974,8.982c.1.1.188.2.277.305l-6.837,6.837c-.1-.088-.208-.179-.306-.277l-8.981-8.981a2.5,2.5,0,0,0-3.518-3.514l-1.279-1.279,6.873-6.863Zm3.229-8.042L17.828,35.692a.8.8,0,0,0-.211.76A8.05,8.05,0,1,1,11.8,30.636a.807.807,0,0,0,.76-.211L30.7,12.289a.8.8,0,0,0,.21-.76,7.957,7.957,0,0,1,8.2-9.915l-4.218,4.22a.8.8,0,0,0-.193.818l1.6,4.8a.8.8,0,0,0,.506.505l4.8,1.6a.8.8,0,0,0,.818-.193l4.218-4.218c.01.153.014.3.014.454a7.955,7.955,0,0,1-9.929,7.748.8.8,0,0,0-.76.21h0Zm0,0" transform="translate(-0.274 0)" fill="currentColor"></path><path id="Path_6" data-name="Path 6" d="M392.017,390.621l-1.131,1.131-8-8,1.131-1.131Zm0,0" transform="translate(-350.67 -350.404)" fill="currentColor"></path></svg>