<svg xmlns="http://www.w3.org/2000/svg" id="save-money" viewBox="0 0 49 49"><g id="Group_13" data-name="Group 13" transform="translate(0 11.645)"><g id="Group_12" data-name="Group 12"><path id="Path_7" data-name="Path 7" d="M46.559,134.048l-2.223-.278a15.264,15.264,0,0,0-2.854-4.5l1.635-6.916a.956.956,0,0,0-.931-1.175h-.212a6.594,6.594,0,0,0-6.12,4.206,15.066,15.066,0,0,0-2.093-.661.956.956,0,1,0-.441,1.86,13.257,13.257,0,0,1,6.322,3.513.954.954,0,0,0,.232.238,13.3,13.3,0,0,1,2.876,4.639.957.957,0,0,0,.781.622l2.791.349a.874.874,0,0,1,.765.866v4.819a.875.875,0,0,1-.765.866l-2.586.323a.957.957,0,0,0-.795.663,13.26,13.26,0,0,1-4.216,6.261.955.955,0,0,0-.346.736v5.283a.861.861,0,0,1-.861.86H31.965a.861.861,0,0,1-.861-.86v-2.013a.956.956,0,0,0-.957-.956h-8.04a.956.956,0,0,0-.957.956v2.013a.861.861,0,0,1-.861.86H14.737a.861.861,0,0,1-.861-.86v-3.73a.956.956,0,0,0-.5-.84,13.282,13.282,0,0,1,6.336-24.964h1.2a.956.956,0,1,0,0-1.912h-1.2A15.237,15.237,0,0,0,4.96,135.79h-.7a2.342,2.342,0,1,1,0-4.683.956.956,0,1,0,0-1.912,4.253,4.253,0,1,0,0,8.507h.347a15.186,15.186,0,0,0,7.356,14.886v3.174a2.776,2.776,0,0,0,2.775,2.772h5.551a2.776,2.776,0,0,0,2.775-2.772V154.7H29.19v1.058a2.776,2.776,0,0,0,2.775,2.772h5.551a2.776,2.776,0,0,0,2.775-2.772v-4.842a15.162,15.162,0,0,0,4.277-6.278l1.989-.249A2.79,2.79,0,0,0,49,141.629V136.81A2.79,2.79,0,0,0,46.559,134.048Zm-6.684-6.3a15.263,15.263,0,0,0-2.283-1.544,4.671,4.671,0,0,1,3.357-3Z" transform="translate(0 -121.178)" fill="currentColor"></path></g></g><g id="Group_15" data-name="Group 15" transform="translate(36.457 24.017)"><g id="Group_14" data-name="Group 14"><path id="Path_8" data-name="Path 8" d="M382.641,251.282a.96.96,0,1,0,.282.679A.968.968,0,0,0,382.641,251.282Z" transform="translate(-381.001 -251)" fill="currentColor"></path></g></g><g id="Group_17" data-name="Group 17" transform="translate(27.103 5.606)"><g id="Group_16" data-name="Group 16"><path id="Path_9" data-name="Path 9" d="M284.2,58.333a.961.961,0,0,0-.961.961v3.812a.961.961,0,1,0,1.922,0V59.294A.961.961,0,0,0,284.2,58.333Z" transform="translate(-283.242 -58.333)" fill="currentColor"></path></g></g><g id="Group_19" data-name="Group 19" transform="translate(27.103 2.119)"><g id="Group_18" data-name="Group 18"><path id="Path_10" data-name="Path 10" d="M284.881,22.332a.96.96,0,1,0,.282.679A.968.968,0,0,0,284.881,22.332Z" transform="translate(-283.241 -22.05)" fill="currentColor"></path></g></g><g id="Group_21" data-name="Group 21" transform="translate(19.329)"><g id="Group_20" data-name="Group 20"><path id="Path_11" data-name="Path 11" d="M202.961,0A.961.961,0,0,0,202,.961V2.595a.961.961,0,1,0,1.922,0V.961A.961.961,0,0,0,202.961,0Z" transform="translate(-202)" fill="currentColor"></path></g></g><g id="Group_23" data-name="Group 23" transform="translate(8.989 28.99)"><g id="Group_22" data-name="Group 22"><path id="Path_12" data-name="Path 12" d="M95.86,303.93a.961.961,0,1,0-1.922,0v.051a.961.961,0,0,0,.961.955h.006a.961.961,0,0,0,.955-.967Z" transform="translate(-93.938 -302.969)" fill="currentColor"></path></g></g><g id="Group_25" data-name="Group 25" transform="translate(9.628 32.466)"><g id="Group_24" data-name="Group 24"><path id="Path_13" data-name="Path 13" d="M106.187,344.476a8.908,8.908,0,0,1-3.672-4.4.961.961,0,1,0-1.795.688,10.838,10.838,0,0,0,4.467,5.352.961.961,0,1,0,1-1.642Z" transform="translate(-100.656 -339.46)" fill="currentColor"></path></g></g><g id="Group_27" data-name="Group 27" transform="translate(16.256 4.618)"><g id="Group_26" data-name="Group 26"><path id="Path_14" data-name="Path 14" d="M174.036,48.052a4.036,4.036,0,1,0,4.036,4.036A4.041,4.041,0,0,0,174.036,48.052Zm0,6.15a2.114,2.114,0,1,1,2.114-2.114A2.117,2.117,0,0,1,174.036,54.2Z" transform="translate(-170 -48.052)" fill="currentColor"></path></g></g><g id="Group_29" data-name="Group 29" transform="translate(18.917 14.153)"><g id="Group_28" data-name="Group 28"><path id="Path_15" data-name="Path 15" d="M211.454,154.15h-.865a4.036,4.036,0,1,0-6.873,0h-4.755a.961.961,0,1,0,0,1.922h12.493a.961.961,0,0,0,0-1.922Zm-4.3,0a2.114,2.114,0,1,1,2.114-2.114A2.117,2.117,0,0,1,207.153,154.15Z" transform="translate(-198 -148)" fill="currentColor"></path></g></g></svg>