<svg xmlns="http://www.w3.org/2000/svg" viewBox="0 0 53.484 49"><path id="Path_24" data-name="Path 24" d="M52.915,52.431a3.306,3.306,0,0,0-4.566-.883l-6.825,4.568L41.5,41.9l2.371,2.221a2.7,2.7,0,0,0,1.852.732h0a2.72,2.72,0,0,0,1.974-.857,2.71,2.71,0,0,0-.125-3.83l-4.5-4.211a.763.763,0,0,0-1.044,1.114l4.5,4.211a1.183,1.183,0,0,1-.807,2.046h0a1.178,1.178,0,0,1-.808-.32h0L27.068,26.282a.763.763,0,0,0-1.045,0L8.219,43.056A1.183,1.183,0,0,1,6.6,41.333L25.731,23.308a1.185,1.185,0,0,1,1.62,0L38.546,33.793a.763.763,0,1,0,1.044-1.114L28.4,22.192a2.714,2.714,0,0,0-3.711.005l-6.125,5.77,0-1.029a1.215,1.215,0,0,0-1.214-1.213h0l-4.382.006a1.214,1.214,0,0,0-1.213,1.216l.012,7.426L5.55,40.222A2.71,2.71,0,0,0,7.327,44.9H7.41a2.69,2.69,0,0,0,1.856-.737l2.366-2.229.009,6.716a16.088,16.088,0,0,0-2.318-.17H8.017v-.458A2.79,2.79,0,0,0,5.23,45.239H2.787A2.79,2.79,0,0,0,0,48.026V59.989a.763.763,0,0,0,1.527,0V48.026a1.262,1.262,0,0,1,1.26-1.26H5.23a1.262,1.262,0,0,1,1.26,1.26V66.1a1.262,1.262,0,0,1-1.26,1.26H2.787a1.262,1.262,0,0,1-1.26-1.26V64.769a.763.763,0,0,0-1.527,0V66.1a2.79,2.79,0,0,0,2.787,2.787H5.23A2.79,2.79,0,0,0,8.017,66.1V66L19.2,70.234q.031.012.063.021a5.332,5.332,0,0,0,1.452.206,4.941,4.941,0,0,0,.772-.06l16.43-2.368.011,0a8.043,8.043,0,0,0,3.811-1.708l.028-.024,10.614-9.546A3.306,3.306,0,0,0,52.915,52.431ZM17.031,27.252l0,2.151-3.751,3.534-.009-5.68Zm9.517.634L39.975,40.465,40,57.136l-2.161,1.447-2.289-.128-.06-.608A4.834,4.834,0,0,0,31.6,53.572l-.014-9.918a1.383,1.383,0,0,0-1.382-1.38h0l-7.276.01a1.382,1.382,0,0,0-1.38,1.383l.012,8.647a14.508,14.508,0,0,1-4.1-1.626q-.241-.141-.486-.273c-.064-.034-.128-.067-.193-.1-.1-.052-.2-.1-.3-.154-.08-.04-.161-.077-.242-.116s-.171-.082-.257-.121-.176-.078-.265-.116-.161-.07-.243-.1-.182-.074-.274-.109l-.244-.094q-.136-.051-.273-.1l-.257-.088-.263-.085c-.094-.03-.188-.058-.282-.086l-.243-.07c-.106-.03-.213-.057-.32-.085l-.15-.04L13.157,40.5Zm3.529,25.494-6.385-.735-.6-.069-.012-8.765,6.986-.01ZM51.36,55.614l-10.6,9.537a6.515,6.515,0,0,1-3.067,1.371L21.267,68.889l-.01,0-.011,0a3.64,3.64,0,0,1-1.54-.1L8.017,64.368V50.011H9.323a14.577,14.577,0,0,1,3.292.378l.12.028c.132.032.264.065.4.1l.034.01q.2.054.393.113l.07.021q.208.064.415.135l.043.015q.43.148.85.324l.046.019q.209.088.416.182l.011.005q.2.092.4.19l.046.023q.193.1.383.2l.072.039c.128.07.255.141.381.214a16.036,16.036,0,0,0,5.878,2.046l.02,0,8.553.985q.071.01.141.023a3.311,3.311,0,0,1,2.585,2.379,3.355,3.355,0,0,1,.1.556l.034.342-16.03-1.4a.763.763,0,1,0-.133,1.521L34.786,59.94h.024l3.2.179h.043c.015,0,.03,0,.045,0l.051,0c.023,0,.045-.008.067-.013s.032-.006.048-.011a.744.744,0,0,0,.072-.026c.013-.005.026-.009.038-.015a.754.754,0,0,0,.1-.058l2.713-1.816h0L49.2,52.816a1.772,1.772,0,0,1,2.161,2.8Z" transform="translate(0 -21.461)" fill="currentColor"></path></svg>