<svg xmlns="http://www.w3.org/2000/svg" viewBox="0 0 49 49"><g id="brush" transform="translate(0 -0.001)"><g id="Group_40" data-name="Group 40" transform="translate(0 0.001)"><g id="Group_39" data-name="Group 39" transform="translate(0 0)"><path id="Path_20" data-name="Path 20" d="M46.55,29.4H39.2V17.151h7.35a.817.817,0,0,0,.817-.817V12.308L48.992.934A.817.817,0,0,0,48.183,0H25.317a.817.817,0,0,0-.809.933l1.625,11.375v4.026a.817.817,0,0,0,.817.817H34.3V29.4h-.817a2.45,2.45,0,0,0,0,4.9H34.3v1.633H28.583L29.345,24.5h.871a.817.817,0,0,0,.817-.817V20.418a.817.817,0,0,0-.817-.817H24.439a5.728,5.728,0,0,0-2.893-4.184A5.717,5.717,0,1,0,10.668,12.3a8.154,8.154,0,0,0-8.983,7.229c0,.024-.005.048-.007.072H.817A.817.817,0,0,0,0,20.418v3.267a.817.817,0,0,0,.817.817h.87l1.58,23.737A.817.817,0,0,0,4.083,49h44.1A.817.817,0,0,0,49,48.184V31.851A2.45,2.45,0,0,0,46.55,29.4ZM26.258,1.634H29.4v4.9h1.633v-4.9h1.633V3.268H34.3V1.634h4.9v2.45h1.633V1.634h1.633v4.9H44.1v-4.9h3.142l-1.4,9.8H27.658Zm1.508,13.883v-2.45H45.733v2.45Zm9.8,1.633V29.4H35.933V17.151ZM29.4,21.234v1.633H17.15V21.234Zm-18.808-7.3a6.52,6.52,0,0,1,.668.118h.027a6.564,6.564,0,0,1,2.619,1.281l1.027-1.27a8.206,8.206,0,0,0-2.641-1.416,4.073,4.073,0,1,1,7.432,2.695.817.817,0,0,0,.408,1.225A4.083,4.083,0,0,1,22.774,19.6h-6.44a.817.817,0,0,0-.817.817v7.35a.817.817,0,0,1-1.633,0V26.134a2.45,2.45,0,1,0-4.9,0v5.717a.817.817,0,1,1-1.633,0V20.418a.817.817,0,0,0-.817-.817H3.321A6.518,6.518,0,0,1,10.592,13.936ZM1.633,22.868V21.234H5.717v1.633ZM22.867,38.384v8.983H4.848L3.323,24.5H5.717v7.35a2.45,2.45,0,0,0,4.9,0V26.134a.817.817,0,0,1,1.633,0v1.633a2.45,2.45,0,0,0,4.9,0V24.5H27.71l-.76,11.433H25.317A2.45,2.45,0,0,0,22.867,38.384Zm24.5,8.983h-2.45V43.284H43.283v4.083h-2.45V43.284H39.2v4.083H36.75V43.284H35.117v4.083h-2.45V43.284H31.033v4.083h-2.45V43.284H26.95v4.083H24.5V40.834H47.367Zm0-8.167H24.5v-.817a.817.817,0,0,1,.817-.817H43.283a2.45,2.45,0,1,0,0-4.9h-9.8a.817.817,0,1,1,0-1.633H46.55a.817.817,0,0,1,.817.817ZM35.933,35.934V34.3h1.633v1.633Zm3.267,0V34.3h4.083a.817.817,0,1,1,0,1.633Z" transform="translate(0 -0.001)" fill="currentColor"></path></g></g><g id="Group_42" data-name="Group 42" transform="translate(0 6.799)"><g id="Group_41" data-name="Group 41"><path id="Path_21" data-name="Path 21" d="M3.4,65.7V64H1.7v1.7H0v1.7H1.7v1.7H3.4V67.4H5.1V65.7Z" transform="translate(0 -64.001)" fill="currentColor"></path></g></g><g id="Group_44" data-name="Group 44" transform="translate(43.052 21.139)"><g id="Group_43" data-name="Group 43"><path id="Path_22" data-name="Path 22" d="M427.4,209.7V208h-1.7v1.7H424v1.7h1.7v1.7h1.7v-1.7h1.7v-1.7Z" transform="translate(-424 -208.001)" fill="currentColor"></path></g></g><g id="Group_46" data-name="Group 46" transform="translate(12.195 0.001)"><g id="Group_45" data-name="Group 45" transform="translate(0 0)"><path id="Path_23" data-name="Path 23" d="M123.4,1.7V0h-1.7V1.7H120V3.4h1.7V5.1h1.7V3.4h1.7V1.7Z" transform="translate(-120 -0.001)" fill="currentColor"></path></g></g><g id="Group_48" data-name="Group 48" transform="translate(29.768 8.987)"><g id="Group_47" data-name="Group 47" transform="translate(0 0)"><rect id="Rectangle_24" data-name="Rectangle 24" width="1" height="1" fill="currentColor"></rect></g></g></g></svg>